<?xml version="1.0" encoding="UTF-8"?>
<!-- Digitação 3 — E shape · Nelson Faria MOD-BRAÇO-01 · shape móvel (escala maior) -->
<svg xmlns="http://www.w3.org/2000/svg" viewBox="0 0 340 120" role="img" aria-label="Digitação 3 — E shape">
  <title>Digitação 3 — E shape</title>
  <text x="170" y="18" text-anchor="middle" font-family="system-ui,sans-serif" font-size="13" font-weight="700" fill="#111">Digitação 3 — E shape</text>
  <g transform="translate(0,22)">
    <svg viewBox="0 0 340 92" xmlns="http://www.w3.org/2000/svg" >
    <line x1="34" y1="10" x2="34" y2="84.0" stroke="#222" stroke-width="3"/>
    <line x1="92.4" y1="10" x2="92.4" y2="84.0" stroke="#aaa" stroke-width="1"/>
    <line x1="150.8" y1="10" x2="150.8" y2="84.0" stroke="#aaa" stroke-width="1"/>
    <line x1="209.2" y1="10" x2="209.2" y2="84.0" stroke="#aaa" stroke-width="1"/>
    <line x1="267.6" y1="10" x2="267.6" y2="84.0" stroke="#aaa" stroke-width="1"/>
    <line x1="34" y1="10.0" x2="326" y2="10.0" stroke="#444" stroke-width="1"/>
    <text x="6" y="13.5" font-size="9" fill="#555" font-family="system-ui,sans-serif" font-weight="600">e</text>
    <line x1="34" y1="24.8" x2="326" y2="24.8" stroke="#444" stroke-width="1"/>
    <text x="6" y="28.3" font-size="9" fill="#555" font-family="system-ui,sans-serif" font-weight="600">B</text>
    <line x1="34" y1="39.6" x2="326" y2="39.6" stroke="#444" stroke-width="1"/>
    <text x="6" y="43.1" font-size="9" fill="#555" font-family="system-ui,sans-serif" font-weight="600">G</text>
    <line x1="34" y1="54.400000000000006" x2="326" y2="54.400000000000006" stroke="#444" stroke-width="1"/>
    <text x="6" y="57.900000000000006" font-size="9" fill="#555" font-family="system-ui,sans-serif" font-weight="600">D</text>
    <line x1="34" y1="69.2" x2="326" y2="69.2" stroke="#444" stroke-width="1"/>
    <text x="6" y="72.7" font-size="9" fill="#555" font-family="system-ui,sans-serif" font-weight="600">A</text>
    <line x1="34" y1="84.0" x2="326" y2="84.0" stroke="#444" stroke-width="2.2"/>
    <text x="6" y="87.5" font-size="9" fill="#555" font-family="system-ui,sans-serif" font-weight="600">E</text>
    <circle cx="121.6" cy="10.0" r="4.5" fill="#111"/>
    <circle cx="180.0" cy="10.0" r="5.5" fill="#fff" stroke="#111" stroke-width="2"/>
    <circle cx="296.8" cy="10.0" r="4.5" fill="#111"/>
    <circle cx="180.0" cy="24.8" r="4.5" fill="#111"/>
    <circle cx="296.8" cy="24.8" r="4.5" fill="#111"/>
    <circle cx="121.6" cy="39.6" r="4.5" fill="#111"/>
    <circle cx="238.4" cy="39.6" r="4.5" fill="#111"/>
    <circle cx="296.8" cy="39.6" r="4.5" fill="#111"/>
    <circle cx="121.6" cy="54.400000000000006" r="4.5" fill="#111"/>
    <circle cx="238.4" cy="54.400000000000006" r="4.5" fill="#111"/>
    <circle cx="296.8" cy="54.400000000000006" r="5.5" fill="#fff" stroke="#111" stroke-width="2"/>
    <circle cx="121.6" cy="69.2" r="4.5" fill="#111"/>
    <circle cx="180.0" cy="69.2" r="4.5" fill="#111"/>
    <circle cx="296.8" cy="69.2" r="4.5" fill="#111"/>
    <circle cx="121.6" cy="84.0" r="4.5" fill="#111"/>
    <circle cx="180.0" cy="84.0" r="5.5" fill="#fff" stroke="#111" stroke-width="2"/>
    <circle cx="296.8" cy="84.0" r="4.5" fill="#111"/>
  </svg>
  </g>
</svg>