<?xml version="1.0" encoding="UTF-8"?>
<!-- 5 digitações da escala maior · Nelson Faria · MOD-BRAÇO-01 -->
<svg xmlns="http://www.w3.org/2000/svg" viewBox="0 0 400 620" role="img" aria-label="5 digitações da escala maior">
  <title>5 DIGITAÇÕES DA ESCALA MAIOR</title>
  <rect width="400" height="620" fill="#ffffff"/>
  <text x="200.0" y="32" text-anchor="middle" font-family="system-ui,sans-serif" font-size="18" font-weight="800" fill="#111" letter-spacing="0.04em">5 DIGITAÇÕES DA ESCALA MAIOR</text>
  <text x="200.0" y="50" text-anchor="middle" font-family="system-ui,sans-serif" font-size="10" fill="#666">● preto = nota da escala · ○ branco = tônica · e B G D A E (1ª→6ª)</text>
  <g transform="translate(20.0,56)">
    <line x1="34" y1="10" x2="34" y2="84.0" stroke="#222" stroke-width="3"/>
    <line x1="96.4" y1="10" x2="96.4" y2="84.0" stroke="#aaa" stroke-width="1"/>
    <line x1="158.8" y1="10" x2="158.8" y2="84.0" stroke="#aaa" stroke-width="1"/>
    <line x1="221.2" y1="10" x2="221.2" y2="84.0" stroke="#aaa" stroke-width="1"/>
    <line x1="283.6" y1="10" x2="283.6" y2="84.0" stroke="#aaa" stroke-width="1"/>
    <line x1="34" y1="10.0" x2="346" y2="10.0" stroke="#444" stroke-width="1"/>
    <text x="6" y="13.5" font-size="9" fill="#555" font-family="system-ui,sans-serif" font-weight="600">e</text>
    <line x1="34" y1="24.8" x2="346" y2="24.8" stroke="#444" stroke-width="1"/>
    <text x="6" y="28.3" font-size="9" fill="#555" font-family="system-ui,sans-serif" font-weight="600">B</text>
    <line x1="34" y1="39.6" x2="346" y2="39.6" stroke="#444" stroke-width="1"/>
    <text x="6" y="43.1" font-size="9" fill="#555" font-family="system-ui,sans-serif" font-weight="600">G</text>
    <line x1="34" y1="54.400000000000006" x2="346" y2="54.400000000000006" stroke="#444" stroke-width="1"/>
    <text x="6" y="57.900000000000006" font-size="9" fill="#555" font-family="system-ui,sans-serif" font-weight="600">D</text>
    <line x1="34" y1="69.2" x2="346" y2="69.2" stroke="#444" stroke-width="1"/>
    <text x="6" y="72.7" font-size="9" fill="#555" font-family="system-ui,sans-serif" font-weight="600">A</text>
    <line x1="34" y1="84.0" x2="346" y2="84.0" stroke="#444" stroke-width="2.2"/>
    <text x="6" y="87.5" font-size="9" fill="#555" font-family="system-ui,sans-serif" font-weight="600">E</text>
    <circle cx="127.6" cy="10.0" r="4.5" fill="#111"/>
    <circle cx="252.4" cy="10.0" r="4.5" fill="#111"/>
    <circle cx="127.6" cy="24.8" r="4.5" fill="#111"/>
    <circle cx="252.4" cy="24.8" r="4.5" fill="#111"/>
    <circle cx="314.8" cy="24.8" r="4.5" fill="#111"/>
    <circle cx="65.2" cy="39.6" r="4.5" fill="#111"/>
    <circle cx="190.0" cy="39.6" r="4.5" fill="#111"/>
    <circle cx="252.4" cy="39.6" r="5.5" fill="#fff" stroke="#111" stroke-width="2"/>
    <circle cx="65.2" cy="54.400000000000006" r="4.5" fill="#111"/>
    <circle cx="127.6" cy="54.400000000000006" r="4.5" fill="#111"/>
    <circle cx="252.4" cy="54.400000000000006" r="4.5" fill="#111"/>
    <circle cx="65.2" cy="69.2" r="4.5" fill="#111"/>
    <circle cx="127.6" cy="69.2" r="5.5" fill="#fff" stroke="#111" stroke-width="2"/>
    <circle cx="252.4" cy="69.2" r="4.5" fill="#111"/>
    <circle cx="127.6" cy="84.0" r="4.5" fill="#111"/>
    <circle cx="252.4" cy="84.0" r="4.5" fill="#111"/>
  </g>
  <g transform="translate(20.0,162)">
    <line x1="34" y1="10" x2="34" y2="84.0" stroke="#222" stroke-width="3"/>
    <line x1="96.4" y1="10" x2="96.4" y2="84.0" stroke="#aaa" stroke-width="1"/>
    <line x1="158.8" y1="10" x2="158.8" y2="84.0" stroke="#aaa" stroke-width="1"/>
    <line x1="221.2" y1="10" x2="221.2" y2="84.0" stroke="#aaa" stroke-width="1"/>
    <line x1="283.6" y1="10" x2="283.6" y2="84.0" stroke="#aaa" stroke-width="1"/>
    <line x1="34" y1="10.0" x2="346" y2="10.0" stroke="#444" stroke-width="1"/>
    <text x="6" y="13.5" font-size="9" fill="#555" font-family="system-ui,sans-serif" font-weight="600">e</text>
    <line x1="34" y1="24.8" x2="346" y2="24.8" stroke="#444" stroke-width="1"/>
    <text x="6" y="28.3" font-size="9" fill="#555" font-family="system-ui,sans-serif" font-weight="600">B</text>
    <line x1="34" y1="39.6" x2="346" y2="39.6" stroke="#444" stroke-width="1"/>
    <text x="6" y="43.1" font-size="9" fill="#555" font-family="system-ui,sans-serif" font-weight="600">G</text>
    <line x1="34" y1="54.400000000000006" x2="346" y2="54.400000000000006" stroke="#444" stroke-width="1"/>
    <text x="6" y="57.900000000000006" font-size="9" fill="#555" font-family="system-ui,sans-serif" font-weight="600">D</text>
    <line x1="34" y1="69.2" x2="346" y2="69.2" stroke="#444" stroke-width="1"/>
    <text x="6" y="72.7" font-size="9" fill="#555" font-family="system-ui,sans-serif" font-weight="600">A</text>
    <line x1="34" y1="84.0" x2="346" y2="84.0" stroke="#444" stroke-width="2.2"/>
    <text x="6" y="87.5" font-size="9" fill="#555" font-family="system-ui,sans-serif" font-weight="600">E</text>
    <circle cx="127.6" cy="10.0" r="4.5" fill="#111"/>
    <circle cx="252.4" cy="10.0" r="4.5" fill="#111"/>
    <circle cx="314.8" cy="10.0" r="5.5" fill="#fff" stroke="#111" stroke-width="2"/>
    <circle cx="127.6" cy="24.8" r="4.5" fill="#111"/>
    <circle cx="190.0" cy="24.8" r="4.5" fill="#111"/>
    <circle cx="314.8" cy="24.8" r="4.5" fill="#111"/>
    <circle cx="65.2" cy="39.6" r="4.5" fill="#111"/>
    <circle cx="127.6" cy="39.6" r="5.5" fill="#fff" stroke="#111" stroke-width="2"/>
    <circle cx="252.4" cy="39.6" r="4.5" fill="#111"/>
    <circle cx="127.6" cy="54.400000000000006" r="4.5" fill="#111"/>
    <circle cx="252.4" cy="54.400000000000006" r="4.5" fill="#111"/>
    <circle cx="127.6" cy="69.2" r="4.5" fill="#111"/>
    <circle cx="252.4" cy="69.2" r="4.5" fill="#111"/>
    <circle cx="314.8" cy="69.2" r="4.5" fill="#111"/>
    <circle cx="127.6" cy="84.0" r="4.5" fill="#111"/>
    <circle cx="190.0" cy="84.0" r="4.5" fill="#111"/>
    <circle cx="314.8" cy="84.0" r="5.5" fill="#fff" stroke="#111" stroke-width="2"/>
  </g>
  <g transform="translate(20.0,268)">
    <line x1="34" y1="10" x2="34" y2="84.0" stroke="#222" stroke-width="3"/>
    <line x1="96.4" y1="10" x2="96.4" y2="84.0" stroke="#aaa" stroke-width="1"/>
    <line x1="158.8" y1="10" x2="158.8" y2="84.0" stroke="#aaa" stroke-width="1"/>
    <line x1="221.2" y1="10" x2="221.2" y2="84.0" stroke="#aaa" stroke-width="1"/>
    <line x1="283.6" y1="10" x2="283.6" y2="84.0" stroke="#aaa" stroke-width="1"/>
    <line x1="34" y1="10.0" x2="346" y2="10.0" stroke="#444" stroke-width="1"/>
    <text x="6" y="13.5" font-size="9" fill="#555" font-family="system-ui,sans-serif" font-weight="600">e</text>
    <line x1="34" y1="24.8" x2="346" y2="24.8" stroke="#444" stroke-width="1"/>
    <text x="6" y="28.3" font-size="9" fill="#555" font-family="system-ui,sans-serif" font-weight="600">B</text>
    <line x1="34" y1="39.6" x2="346" y2="39.6" stroke="#444" stroke-width="1"/>
    <text x="6" y="43.1" font-size="9" fill="#555" font-family="system-ui,sans-serif" font-weight="600">G</text>
    <line x1="34" y1="54.400000000000006" x2="346" y2="54.400000000000006" stroke="#444" stroke-width="1"/>
    <text x="6" y="57.900000000000006" font-size="9" fill="#555" font-family="system-ui,sans-serif" font-weight="600">D</text>
    <line x1="34" y1="69.2" x2="346" y2="69.2" stroke="#444" stroke-width="1"/>
    <text x="6" y="72.7" font-size="9" fill="#555" font-family="system-ui,sans-serif" font-weight="600">A</text>
    <line x1="34" y1="84.0" x2="346" y2="84.0" stroke="#444" stroke-width="2.2"/>
    <text x="6" y="87.5" font-size="9" fill="#555" font-family="system-ui,sans-serif" font-weight="600">E</text>
    <circle cx="127.6" cy="10.0" r="4.5" fill="#111"/>
    <circle cx="190.0" cy="10.0" r="5.5" fill="#fff" stroke="#111" stroke-width="2"/>
    <circle cx="314.8" cy="10.0" r="4.5" fill="#111"/>
    <circle cx="190.0" cy="24.8" r="4.5" fill="#111"/>
    <circle cx="314.8" cy="24.8" r="4.5" fill="#111"/>
    <circle cx="127.6" cy="39.6" r="4.5" fill="#111"/>
    <circle cx="252.4" cy="39.6" r="4.5" fill="#111"/>
    <circle cx="314.8" cy="39.6" r="4.5" fill="#111"/>
    <circle cx="127.6" cy="54.400000000000006" r="4.5" fill="#111"/>
    <circle cx="252.4" cy="54.400000000000006" r="4.5" fill="#111"/>
    <circle cx="314.8" cy="54.400000000000006" r="5.5" fill="#fff" stroke="#111" stroke-width="2"/>
    <circle cx="127.6" cy="69.2" r="4.5" fill="#111"/>
    <circle cx="190.0" cy="69.2" r="4.5" fill="#111"/>
    <circle cx="314.8" cy="69.2" r="4.5" fill="#111"/>
    <circle cx="127.6" cy="84.0" r="4.5" fill="#111"/>
    <circle cx="190.0" cy="84.0" r="5.5" fill="#fff" stroke="#111" stroke-width="2"/>
    <circle cx="314.8" cy="84.0" r="4.5" fill="#111"/>
  </g>
  <g transform="translate(20.0,374)">
    <line x1="34" y1="10" x2="34" y2="84.0" stroke="#222" stroke-width="3"/>
    <line x1="96.4" y1="10" x2="96.4" y2="84.0" stroke="#aaa" stroke-width="1"/>
    <line x1="158.8" y1="10" x2="158.8" y2="84.0" stroke="#aaa" stroke-width="1"/>
    <line x1="221.2" y1="10" x2="221.2" y2="84.0" stroke="#aaa" stroke-width="1"/>
    <line x1="283.6" y1="10" x2="283.6" y2="84.0" stroke="#aaa" stroke-width="1"/>
    <line x1="34" y1="10.0" x2="346" y2="10.0" stroke="#444" stroke-width="1"/>
    <text x="6" y="13.5" font-size="9" fill="#555" font-family="system-ui,sans-serif" font-weight="600">e</text>
    <line x1="34" y1="24.8" x2="346" y2="24.8" stroke="#444" stroke-width="1"/>
    <text x="6" y="28.3" font-size="9" fill="#555" font-family="system-ui,sans-serif" font-weight="600">B</text>
    <line x1="34" y1="39.6" x2="346" y2="39.6" stroke="#444" stroke-width="1"/>
    <text x="6" y="43.1" font-size="9" fill="#555" font-family="system-ui,sans-serif" font-weight="600">G</text>
    <line x1="34" y1="54.400000000000006" x2="346" y2="54.400000000000006" stroke="#444" stroke-width="1"/>
    <text x="6" y="57.900000000000006" font-size="9" fill="#555" font-family="system-ui,sans-serif" font-weight="600">D</text>
    <line x1="34" y1="69.2" x2="346" y2="69.2" stroke="#444" stroke-width="1"/>
    <text x="6" y="72.7" font-size="9" fill="#555" font-family="system-ui,sans-serif" font-weight="600">A</text>
    <line x1="34" y1="84.0" x2="346" y2="84.0" stroke="#444" stroke-width="2.2"/>
    <text x="6" y="87.5" font-size="9" fill="#555" font-family="system-ui,sans-serif" font-weight="600">E</text>
    <circle cx="127.6" cy="10.0" r="4.5" fill="#111"/>
    <circle cx="252.4" cy="10.0" r="4.5" fill="#111"/>
    <circle cx="314.8" cy="10.0" r="4.5" fill="#111"/>
    <circle cx="127.6" cy="24.8" r="4.5" fill="#111"/>
    <circle cx="252.4" cy="24.8" r="4.5" fill="#111"/>
    <circle cx="314.8" cy="24.8" r="5.5" fill="#fff" stroke="#111" stroke-width="2"/>
    <circle cx="65.2" cy="39.6" r="4.5" fill="#111"/>
    <circle cx="127.6" cy="39.6" r="4.5" fill="#111"/>
    <circle cx="252.4" cy="39.6" r="4.5" fill="#111"/>
    <circle cx="65.2" cy="54.400000000000006" r="4.5" fill="#111"/>
    <circle cx="127.6" cy="54.400000000000006" r="5.5" fill="#fff" stroke="#111" stroke-width="2"/>
    <circle cx="252.4" cy="54.400000000000006" r="4.5" fill="#111"/>
    <circle cx="127.6" cy="69.2" r="4.5" fill="#111"/>
    <circle cx="252.4" cy="69.2" r="4.5" fill="#111"/>
    <circle cx="127.6" cy="84.0" r="4.5" fill="#111"/>
    <circle cx="252.4" cy="84.0" r="4.5" fill="#111"/>
    <circle cx="314.8" cy="84.0" r="4.5" fill="#111"/>
  </g>
  <g transform="translate(20.0,480)">
    <line x1="34" y1="10" x2="34" y2="84.0" stroke="#222" stroke-width="3"/>
    <line x1="96.4" y1="10" x2="96.4" y2="84.0" stroke="#aaa" stroke-width="1"/>
    <line x1="158.8" y1="10" x2="158.8" y2="84.0" stroke="#aaa" stroke-width="1"/>
    <line x1="221.2" y1="10" x2="221.2" y2="84.0" stroke="#aaa" stroke-width="1"/>
    <line x1="283.6" y1="10" x2="283.6" y2="84.0" stroke="#aaa" stroke-width="1"/>
    <line x1="34" y1="10.0" x2="346" y2="10.0" stroke="#444" stroke-width="1"/>
    <text x="6" y="13.5" font-size="9" fill="#555" font-family="system-ui,sans-serif" font-weight="600">e</text>
    <line x1="34" y1="24.8" x2="346" y2="24.8" stroke="#444" stroke-width="1"/>
    <text x="6" y="28.3" font-size="9" fill="#555" font-family="system-ui,sans-serif" font-weight="600">B</text>
    <line x1="34" y1="39.6" x2="346" y2="39.6" stroke="#444" stroke-width="1"/>
    <text x="6" y="43.1" font-size="9" fill="#555" font-family="system-ui,sans-serif" font-weight="600">G</text>
    <line x1="34" y1="54.400000000000006" x2="346" y2="54.400000000000006" stroke="#444" stroke-width="1"/>
    <text x="6" y="57.900000000000006" font-size="9" fill="#555" font-family="system-ui,sans-serif" font-weight="600">D</text>
    <line x1="34" y1="69.2" x2="346" y2="69.2" stroke="#444" stroke-width="1"/>
    <text x="6" y="72.7" font-size="9" fill="#555" font-family="system-ui,sans-serif" font-weight="600">A</text>
    <line x1="34" y1="84.0" x2="346" y2="84.0" stroke="#444" stroke-width="2.2"/>
    <text x="6" y="87.5" font-size="9" fill="#555" font-family="system-ui,sans-serif" font-weight="600">E</text>
    <circle cx="127.6" cy="10.0" r="4.5" fill="#111"/>
    <circle cx="190.0" cy="10.0" r="4.5" fill="#111"/>
    <circle cx="314.8" cy="10.0" r="4.5" fill="#111"/>
    <circle cx="127.6" cy="24.8" r="4.5" fill="#111"/>
    <circle cx="190.0" cy="24.8" r="5.5" fill="#fff" stroke="#111" stroke-width="2"/>
    <circle cx="314.8" cy="24.8" r="4.5" fill="#111"/>
    <circle cx="127.6" cy="39.6" r="4.5" fill="#111"/>
    <circle cx="252.4" cy="39.6" r="4.5" fill="#111"/>
    <circle cx="127.6" cy="54.400000000000006" r="4.5" fill="#111"/>
    <circle cx="252.4" cy="54.400000000000006" r="4.5" fill="#111"/>
    <circle cx="314.8" cy="54.400000000000006" r="4.5" fill="#111"/>
    <circle cx="127.6" cy="69.2" r="4.5" fill="#111"/>
    <circle cx="252.4" cy="69.2" r="4.5" fill="#111"/>
    <circle cx="314.8" cy="69.2" r="5.5" fill="#fff" stroke="#111" stroke-width="2"/>
    <circle cx="127.6" cy="84.0" r="4.5" fill="#111"/>
    <circle cx="190.0" cy="84.0" r="4.5" fill="#111"/>
    <circle cx="314.8" cy="84.0" r="4.5" fill="#111"/>
  </g>
  <g transform="translate(80.0,590)">
    <circle cx="8" cy="8" r="5" fill="#111"/>
    <text x="20" y="12" font-family="system-ui,sans-serif" font-size="10" fill="#444">nota da escala</text>
    <circle cx="108" cy="8" r="5.5" fill="#fff" stroke="#111" stroke-width="2"/>
    <text x="122" y="12" font-family="system-ui,sans-serif" font-size="10" fill="#444">tônica</text>
  </g>
</svg>
